<svg xmlns="http://www.w3.org/2000/svg" xmlns:xlink="http://www.w3.org/1999/xlink" width="500" zoomAndPan="magnify" viewBox="0 0 375 374.999991" height="500" preserveAspectRatio="xMidYMid meet" version="1.0"><defs><g/><clipPath id="84a132f3d1"><path d="M 145.585938 86.027344 L 235.664062 86.027344 L 235.664062 176.105469 L 145.585938 176.105469 Z M 145.585938 86.027344 " clip-rule="nonzero"/></clipPath><clipPath id="63a586ed4b"><path d="M 190.722656 86.027344 C 165.796875 86.027344 145.585938 106.238281 145.585938 131.164062 C 145.585938 156.09375 165.796875 176.300781 190.722656 176.300781 C 215.652344 176.300781 235.859375 156.09375 235.859375 131.164062 C 235.859375 106.238281 215.652344 86.027344 190.722656 86.027344 Z M 190.722656 86.027344 " clip-rule="nonzero"/></clipPath><clipPath id="1aa602f16d"><path d="M 166.015625 106.457031 L 215.246094 106.457031 L 215.246094 155.683594 L 166.015625 155.683594 Z M 166.015625 106.457031 " clip-rule="nonzero"/></clipPath><clipPath id="af9e03b45e"><path d="M 190.71875 106.457031 C 177.078125 106.457031 166.015625 117.519531 166.015625 131.160156 C 166.015625 144.804688 177.078125 155.867188 190.71875 155.867188 C 204.363281 155.867188 215.425781 144.804688 215.425781 131.160156 C 215.425781 117.519531 204.363281 106.457031 190.71875 106.457031 Z M 190.71875 106.457031 " clip-rule="nonzero"/></clipPath><clipPath id="ddbfec2b1a"><path d="M 97.238281 86.027344 L 125.257812 86.027344 L 125.257812 114.046875 L 97.238281 114.046875 Z M 97.238281 86.027344 " clip-rule="nonzero"/></clipPath><clipPath id="5170bef3b7"><path d="M 111.246094 86.027344 C 103.511719 86.027344 97.238281 92.300781 97.238281 100.039062 C 97.238281 107.773438 103.511719 114.046875 111.246094 114.046875 C 118.984375 114.046875 125.257812 107.773438 125.257812 100.039062 C 125.257812 92.300781 118.984375 86.027344 111.246094 86.027344 Z M 111.246094 86.027344 " clip-rule="nonzero"/></clipPath></defs><g clip-path="url(#84a132f3d1)"><g clip-path="url(#63a586ed4b)"><path stroke-linecap="butt" transform="matrix(1.047401, 0, 0, 1.047401, 145.586978, 86.028342)" fill="none" stroke-linejoin="miter" d="M 43.093027 -0.000953408 C 19.295282 -0.000953408 -0.000993545 19.295322 -0.000993545 43.093067 C -0.000993545 66.894541 19.295282 86.187087 43.093027 86.187087 C 66.894501 86.187087 86.187047 66.894541 86.187047 43.093067 C 86.187047 19.295322 66.894501 -0.000953408 43.093027 -0.000953408 Z M 43.093027 -0.000953408 " stroke="#ffffff" stroke-width="2.864232" stroke-opacity="1" stroke-miterlimit="4"/></g></g><g clip-path="url(#1aa602f16d)"><g clip-path="url(#af9e03b45e)"><path stroke-linecap="butt" transform="matrix(1.047401, 0, 0, 1.047401, 166.016302, 106.457667)" fill="none" stroke-linejoin="miter" d="M 23.584519 -0.000606606 C 10.561211 -0.000606606 -0.000646742 10.561251 -0.000646742 23.584559 C -0.000646742 36.611596 10.561211 47.173453 23.584519 47.173453 C 36.611556 47.173453 47.173413 36.611596 47.173413 23.584559 C 47.173413 10.561251 36.611556 -0.000606606 23.584519 -0.000606606 Z M 23.584519 -0.000606606 " stroke="#ffffff" stroke-width="2.864232" stroke-opacity="1" stroke-miterlimit="4"/></g></g><g clip-path="url(#ddbfec2b1a)"><g clip-path="url(#5170bef3b7)"><path stroke-linecap="butt" transform="matrix(1.047401, 0, 0, 1.047401, 97.23889, 86.028342)" fill="none" stroke-linejoin="miter" d="M 13.373296 -0.000953408 C 5.988947 -0.000953408 -0.00058131 5.988575 -0.00058131 13.376654 C -0.00058131 20.761003 5.988947 26.750531 13.373296 26.750531 C 20.761376 26.750531 26.750904 20.761003 26.750904 13.376654 C 26.750904 5.988575 20.761376 -0.000953408 13.373296 -0.000953408 Z M 13.373296 -0.000953408 " stroke="#ffffff" stroke-width="2.864232" stroke-opacity="1" stroke-miterlimit="4"/></g></g><path stroke-linecap="round" transform="matrix(0, 1.047401, -1.047401, 0, 112.299432, 112.087053)" fill="none" stroke-linejoin="miter" d="M 0.998432 0.998209 L 60.311916 0.998209 " stroke="#ffffff" stroke-width="2" stroke-opacity="1" stroke-miterlimit="4"/><path stroke-linecap="round" transform="matrix(0, 1.047401, -1.047401, 0, 258.903122, 86.03308)" fill="none" stroke-linejoin="miter" d="M 1.00148 1.000241 L 25.757699 1.000241 " stroke="#ffffff" stroke-width="2" stroke-opacity="1" stroke-miterlimit="4"/><path stroke-linecap="round" transform="matrix(0, 1.047401, -1.047401, 0, 268.331881, 86.030949)" fill="none" stroke-linejoin="miter" d="M 0.999785 0.999355 L 85.19256 0.999355 " stroke="#ffffff" stroke-width="2" stroke-opacity="1" stroke-miterlimit="4"/><path stroke-linecap="round" transform="matrix(0, 1.047401, -1.047401, 0, 277.756335, 86.03308)" fill="none" stroke-linejoin="miter" d="M 1.00148 1.001817 L 25.757699 1.001817 " stroke="#ffffff" stroke-width="2" stroke-opacity="1" stroke-miterlimit="4"/><path stroke-linecap="butt" transform="matrix(1.047401, 0, 0, 1.047401, 256.813053, 111.960996)" fill="none" stroke-linejoin="miter" d="M -0.000528199 0.999442 L 20.000617 0.999442 " stroke="#ffffff" stroke-width="2" stroke-opacity="1" stroke-miterlimit="4"/><g fill="#ffffff" fill-opacity="1"><g transform="translate(118.656348, 220.306421)"><g><path d="M 10.21875 -1.5 C 11.300781 -1.5 12.332031 -1.710938 13.3125 -2.140625 C 14.300781 -2.566406 15.128906 -3.15625 15.796875 -3.90625 L 17.046875 -2.59375 C 16.179688 -1.695312 15.148438 -0.992188 13.953125 -0.484375 C 12.753906 0.0234375 11.492188 0.28125 10.171875 0.28125 C 8.910156 0.28125 7.722656 0.046875 6.609375 -0.421875 C 5.503906 -0.890625 4.539062 -1.523438 3.71875 -2.328125 C 2.90625 -3.140625 2.265625 -4.097656 1.796875 -5.203125 C 1.328125 -6.316406 1.09375 -7.5 1.09375 -8.75 C 1.09375 -10 1.328125 -11.175781 1.796875 -12.28125 C 2.265625 -13.394531 2.90625 -14.351562 3.71875 -15.15625 C 4.539062 -15.96875 5.503906 -16.609375 6.609375 -17.078125 C 7.722656 -17.546875 8.910156 -17.78125 10.171875 -17.78125 C 11.523438 -17.78125 12.804688 -17.523438 14.015625 -17.015625 C 15.222656 -16.503906 16.25 -15.800781 17.09375 -14.90625 L 15.828125 -13.546875 C 15.140625 -14.316406 14.289062 -14.914062 13.28125 -15.34375 C 12.28125 -15.78125 11.242188 -16 10.171875 -16 C 9.171875 -16 8.234375 -15.8125 7.359375 -15.4375 C 6.484375 -15.0625 5.726562 -14.550781 5.09375 -13.90625 C 4.46875 -13.269531 3.96875 -12.503906 3.59375 -11.609375 C 3.226562 -10.722656 3.046875 -9.769531 3.046875 -8.75 C 3.046875 -7.726562 3.226562 -6.769531 3.59375 -5.875 C 3.96875 -4.988281 4.472656 -4.222656 5.109375 -3.578125 C 5.753906 -2.941406 6.515625 -2.4375 7.390625 -2.0625 C 8.265625 -1.6875 9.207031 -1.5 10.21875 -1.5 Z M 10.21875 -1.5 "/></g></g></g><g fill="#ffffff" fill-opacity="1"><g transform="translate(140.45347, 220.306421)"><g><path d="M 1.921875 0 L 1.921875 -17.5 L 14.453125 -17.5 L 14.453125 -15.796875 L 3.84375 -15.796875 L 3.84375 -9.671875 L 10.78125 -9.671875 L 10.78125 -8 L 3.84375 -8 L 3.84375 -1.703125 L 14.546875 -1.703125 L 14.546875 0 Z M 1.921875 0 "/></g></g></g><g fill="#ffffff" fill-opacity="1"><g transform="translate(159.601022, 220.306421)"><g><path d="M 1.921875 -17.5 L 3.84375 -17.5 L 14.375 -3.296875 L 14.375 -17.5 L 16.203125 -17.5 L 16.203125 0 L 14.5 0 L 3.75 -14.578125 L 3.75 0 L 1.921875 0 Z M 1.921875 -17.5 "/></g></g></g><g fill="#ffffff" fill-opacity="1"><g transform="translate(181.473135, 220.306421)"><g><path d="M 0.421875 -15.78125 L 0.421875 -17.5 L 15 -17.5 L 15 -15.78125 L 8.671875 -15.78125 L 8.671875 0 L 6.75 0 L 6.75 -15.78125 Z M 0.421875 -15.78125 "/></g></g></g><g fill="#ffffff" fill-opacity="1"><g transform="translate(200.645684, 220.306421)"><g><path d="M 1.921875 0 L 1.921875 -17.5 L 9.421875 -17.5 C 11.117188 -17.5 12.492188 -17.035156 13.546875 -16.109375 C 14.597656 -15.179688 15.125 -13.96875 15.125 -12.46875 C 15.125 -11.320312 14.785156 -10.332031 14.109375 -9.5 C 13.429688 -8.664062 12.53125 -8.09375 11.40625 -7.78125 L 15.328125 0 L 13.203125 0 L 9.453125 -7.53125 L 3.84375 -7.53125 L 3.84375 0 Z M 9.296875 -15.78125 L 3.84375 -15.78125 L 3.84375 -9.15625 L 9.296875 -9.15625 C 10.460938 -9.15625 11.40625 -9.457031 12.125 -10.0625 C 12.84375 -10.664062 13.203125 -11.46875 13.203125 -12.46875 C 13.203125 -13.46875 12.84375 -14.269531 12.125 -14.875 C 11.40625 -15.476562 10.460938 -15.78125 9.296875 -15.78125 Z M 9.296875 -15.78125 "/></g></g></g><g fill="#ffffff" fill-opacity="1"><g transform="translate(220.518119, 220.306421)"><g><path d="M 0.09375 0 L 7.375 -17.5 L 9.703125 -17.5 L 16.875 0 L 14.78125 0 L 12.578125 -5.5 L 4.328125 -5.5 L 2.09375 0 Z M 5 -7.15625 L 11.90625 -7.15625 L 8.46875 -15.703125 Z M 5 -7.15625 "/></g></g></g><g fill="#ffffff" fill-opacity="1"><g transform="translate(241.240415, 220.306421)"><g><path d="M 1.921875 0 L 1.921875 -17.5 L 3.84375 -17.5 L 3.84375 -1.71875 L 14.28125 -1.71875 L 14.28125 0 Z M 1.921875 0 "/></g></g></g><g fill="#ffffff" fill-opacity="1"><g transform="translate(126.767795, 258.511653)"><g><path d="M 0.921875 0 L 0.921875 -8.40625 L 4.53125 -8.40625 C 5.34375 -8.40625 6 -8.179688 6.5 -7.734375 C 7.007812 -7.285156 7.265625 -6.703125 7.265625 -5.984375 C 7.265625 -5.429688 7.097656 -4.953125 6.765625 -4.546875 C 6.441406 -4.148438 6.007812 -3.878906 5.46875 -3.734375 L 7.359375 0 L 6.34375 0 L 4.53125 -3.609375 L 1.84375 -3.609375 L 1.84375 0 Z M 4.46875 -7.578125 L 1.84375 -7.578125 L 1.84375 -4.390625 L 4.46875 -4.390625 C 5.019531 -4.390625 5.46875 -4.535156 5.8125 -4.828125 C 6.164062 -5.117188 6.34375 -5.503906 6.34375 -5.984375 C 6.34375 -6.460938 6.164062 -6.847656 5.8125 -7.140625 C 5.46875 -7.429688 5.019531 -7.578125 4.46875 -7.578125 Z M 4.46875 -7.578125 "/></g></g></g><g fill="#ffffff" fill-opacity="1"><g transform="translate(139.30017, 258.511653)"><g><path d="M 0.921875 0 L 0.921875 -8.40625 L 6.9375 -8.40625 L 6.9375 -7.578125 L 1.84375 -7.578125 L 1.84375 -4.640625 L 5.171875 -4.640625 L 5.171875 -3.84375 L 1.84375 -3.84375 L 1.84375 -0.8125 L 6.984375 -0.8125 L 6.984375 0 Z M 0.921875 0 "/></g></g></g><g fill="#ffffff" fill-opacity="1"><g transform="translate(151.484886, 258.511653)"><g><path d="M 0.125 -1.4375 L 0.75 -2.078125 C 1.175781 -1.617188 1.632812 -1.269531 2.125 -1.03125 C 2.625 -0.800781 3.144531 -0.6875 3.6875 -0.6875 C 4.34375 -0.6875 4.878906 -0.84375 5.296875 -1.15625 C 5.722656 -1.46875 5.9375 -1.863281 5.9375 -2.34375 C 5.9375 -2.769531 5.785156 -3.097656 5.484375 -3.328125 C 5.191406 -3.566406 4.703125 -3.742188 4.015625 -3.859375 L 2.796875 -4.046875 C 1.984375 -4.171875 1.382812 -4.40625 1 -4.75 C 0.625 -5.101562 0.4375 -5.578125 0.4375 -6.171875 C 0.4375 -6.867188 0.707031 -7.429688 1.25 -7.859375 C 1.789062 -8.296875 2.503906 -8.515625 3.390625 -8.515625 C 3.972656 -8.515625 4.550781 -8.414062 5.125 -8.21875 C 5.695312 -8.03125 6.222656 -7.753906 6.703125 -7.390625 L 6.171875 -6.671875 C 5.710938 -7.015625 5.242188 -7.273438 4.765625 -7.453125 C 4.296875 -7.628906 3.820312 -7.71875 3.34375 -7.71875 C 2.75 -7.71875 2.265625 -7.578125 1.890625 -7.296875 C 1.515625 -7.023438 1.328125 -6.671875 1.328125 -6.234375 C 1.328125 -5.847656 1.457031 -5.550781 1.71875 -5.34375 C 1.988281 -5.132812 2.425781 -4.984375 3.03125 -4.890625 L 4.234375 -4.6875 C 5.148438 -4.539062 5.816406 -4.28125 6.234375 -3.90625 C 6.648438 -3.539062 6.859375 -3.035156 6.859375 -2.390625 C 6.859375 -2.023438 6.78125 -1.6875 6.625 -1.375 C 6.46875 -1.0625 6.25 -0.796875 5.96875 -0.578125 C 5.6875 -0.359375 5.347656 -0.1875 4.953125 -0.0625 C 4.554688 0.0625 4.117188 0.125 3.640625 0.125 C 2.984375 0.125 2.347656 -0.0078125 1.734375 -0.28125 C 1.117188 -0.550781 0.582031 -0.9375 0.125 -1.4375 Z M 0.125 -1.4375 "/></g></g></g><g fill="#ffffff" fill-opacity="1"><g transform="translate(163.477786, 258.511653)"><g><path d="M 0.203125 -7.578125 L 0.203125 -8.40625 L 7.203125 -8.40625 L 7.203125 -7.578125 L 4.15625 -7.578125 L 4.15625 0 L 3.234375 0 L 3.234375 -7.578125 Z M 0.203125 -7.578125 "/></g></g></g><g fill="#ffffff" fill-opacity="1"><g transform="translate(175.674484, 258.511653)"><g><path d="M 0.046875 0 L 3.546875 -8.40625 L 4.65625 -8.40625 L 8.09375 0 L 7.09375 0 L 6.03125 -2.640625 L 2.078125 -2.640625 L 1.015625 0 Z M 2.40625 -3.4375 L 5.71875 -3.4375 L 4.0625 -7.53125 Z M 2.40625 -3.4375 "/></g></g></g><g fill="#ffffff" fill-opacity="1"><g transform="translate(188.614455, 258.511653)"><g><path d="M 7.6875 -3.546875 C 7.6875 -2.429688 7.375 -1.539062 6.75 -0.875 C 6.125 -0.207031 5.28125 0.125 4.21875 0.125 C 3.15625 0.125 2.3125 -0.203125 1.6875 -0.859375 C 1.0625 -1.523438 0.75 -2.421875 0.75 -3.546875 L 0.75 -8.40625 L 1.6875 -8.40625 L 1.6875 -3.546875 C 1.6875 -2.691406 1.914062 -2.003906 2.375 -1.484375 C 2.84375 -0.972656 3.457031 -0.71875 4.21875 -0.71875 C 4.988281 -0.71875 5.601562 -0.972656 6.0625 -1.484375 C 6.53125 -2.003906 6.765625 -2.691406 6.765625 -3.546875 L 6.765625 -8.40625 L 7.6875 -8.40625 Z M 7.6875 -3.546875 "/></g></g></g><g fill="#ffffff" fill-opacity="1"><g transform="translate(201.854135, 258.511653)"><g><path d="M 0.921875 0 L 0.921875 -8.40625 L 4.53125 -8.40625 C 5.34375 -8.40625 6 -8.179688 6.5 -7.734375 C 7.007812 -7.285156 7.265625 -6.703125 7.265625 -5.984375 C 7.265625 -5.429688 7.097656 -4.953125 6.765625 -4.546875 C 6.441406 -4.148438 6.007812 -3.878906 5.46875 -3.734375 L 7.359375 0 L 6.34375 0 L 4.53125 -3.609375 L 1.84375 -3.609375 L 1.84375 0 Z M 4.46875 -7.578125 L 1.84375 -7.578125 L 1.84375 -4.390625 L 4.46875 -4.390625 C 5.019531 -4.390625 5.46875 -4.535156 5.8125 -4.828125 C 6.164062 -5.117188 6.34375 -5.503906 6.34375 -5.984375 C 6.34375 -6.460938 6.164062 -6.847656 5.8125 -7.140625 C 5.46875 -7.429688 5.019531 -7.578125 4.46875 -7.578125 Z M 4.46875 -7.578125 "/></g></g></g><g fill="#ffffff" fill-opacity="1"><g transform="translate(214.386514, 258.511653)"><g><path d="M 0.046875 0 L 3.546875 -8.40625 L 4.65625 -8.40625 L 8.09375 0 L 7.09375 0 L 6.03125 -2.640625 L 2.078125 -2.640625 L 1.015625 0 Z M 2.40625 -3.4375 L 5.71875 -3.4375 L 4.0625 -7.53125 Z M 2.40625 -3.4375 "/></g></g></g><g fill="#ffffff" fill-opacity="1"><g transform="translate(227.326485, 258.511653)"><g><path d="M 0.921875 -8.40625 L 1.84375 -8.40625 L 6.90625 -1.578125 L 6.90625 -8.40625 L 7.78125 -8.40625 L 7.78125 0 L 6.953125 0 L 1.796875 -7 L 1.796875 0 L 0.921875 0 Z M 0.921875 -8.40625 "/></g></g></g><g fill="#ffffff" fill-opacity="1"><g transform="translate(240.817912, 258.511653)"><g><path d="M 0.203125 -7.578125 L 0.203125 -8.40625 L 7.203125 -8.40625 L 7.203125 -7.578125 L 4.15625 -7.578125 L 4.15625 0 L 3.234375 0 L 3.234375 -7.578125 Z M 0.203125 -7.578125 "/></g></g></g></svg>